MMMMMMMMMMMMMMMMMMMMMMMMMMMMMMMMMMMMMMMMMMMMMMMMMMMMMMMMMMMMMMMMMMMMMMMMMMMMMMMM
MMMMMMMMMMMMMMMMMMMMMMMMMMMMMMMMMMMMMMMMMMMMMMMMMMMMMMMMMMMMMMMMMMMMMMMMMMMMMMMM
MMMMM....................................................................+MMMMMM
MMMMM....................................................................MMMMMMM
MMMMM.................................................................... MMMMMM
MMMMM  ........ ...........  =$NMMMM D :..?:OZZZZZZII==8=?~$?+8~?Z+I7Z=?~?MMMMMM
MMMMM ..:8D8:.    .  ... :8MMMMMMMMN.$  ...OMMMMMMMMMMMMMMMMMMMMMMMMMMM?:7MMMMMM
MMMMM . 8MMMM..   ... .ZMMMMMMMMMMMN?. .. .MMMMMMMMMNMMMMMMMMMMMMMMMMMM~~$MMMMMM
MMMMM .. .,$M.. ....+MMMMMMMMMD?.   .. .  +MMMMMMMMMMMMMMMMMMMMMMMMMMMM...MMMMMM
MMMMM .  ,MM,...  ,MMMMMMMMM=  ...        DMMMMMMMMMMMMMMMMMMMMMMMMMMM:=~$MMMMMM
MMMMM  .M8. . .. 7MMMMMMMM: ..         . ,MMMMMMMMMMMMMMMMMNZ8MMMMMD8I:~:?MMMMMM
MMMMM .. ... .. DMMMMMMMI ...          . IMMMMMMMMMMMMMMMMMMMMMMMN88N++~:?MMMMMM
MMMMM       . .NMMMMMMM:...              NMMMMMMMMMMMMMMMMMMMMMMMMMM8:::~IMMMMMM
MMMMM      .. NMMMMMM$,...            ..:MMM=...................MMMMI~=~=IMMMMMM
MMMMM      . DMMMMMMZ .  H67 HQ TORRENTS  $MM8...................MMMM=+~=.~+MMMMMM
MMMMM  .    $MMMMMMN..                . MMM...................MNMMMM++~,=?MMMMMM
MMMMM... . ~MMMMMMM,..                .=MMD...................MMMMM.......MMMMMM
MMMMM   . +MMMMMMM$   .               . ... :=~?$$ZDO$?  .+ZO$MMMM7?~~ . +MMMMMM
MMMMM?:...MMMMMMMM.. ..   .          .. .....=?I87?,. . +$I=+?7MMMM=+~=7.+MMMMMM
MMMMMZ . ?MMMMMMMZ ...    ....              ..      . ..:.=?7+MMMMI+=... +MMMMMM
MMMMM.I, NMMMMMMM: .+O8NNDZ~ .                       ....~I$ +MDNMM=  ...+MMMMMM
MMMMM   :MMMMMMMD=MMMMMMMMMMMZ  ..... .. ...  ..,:,,,,,.+=., 7MMMMM, ... +MMMMMM
MMMMM . $MMMMMMMMMMMMMMMMMMMMMM? ..... .=I77~.   .$$Z=.=7=.$ZMMMM$~   .. +MMMMMM
MMMMM . NMMMMMMMMMMMMMMMMMMMMMMMN7:.,,::?ZZZ?++~::$ZZI77..,$$MMMMZZZZ$ . +MMMMMM
MMMMM  .MMMMMMMMMMD+,,:ZMMMMMMMMMM$.     ,,.,, ..,~~== ...  OMMMMN:~=:~?=+MMMMMM
MMMMM  =MMMMMMMMM,. ,~,.,DMMMMMMMMN .. . .......~:~I~...  ..MMMMMZ .. .  +MMMMMM
MMMMM  7MMMMMMMN  :?$OZ,. $MMMMMMMMI ,I=+:.:.  :+~~~?,:,.  IMMMMM:.. ... +MMMMMM
MMMMM  ZMMMMMMMD$?, .  ... NMMMMMMMM?=+?$ZZ$$$ZO88ZI:=?Z$ZI$MMMMD       +MMMMMM
MMMMM. 8MMMMMMM..............MMMMMMMM......................OMMMMM$$?ZZ?..+MMMMMM
MMMMM+8MMMMMMMM, :..+7$Z$=  NMMMMMMMO ......  .. ...$,+OI=ZMMMMM .?$+I+=~+MMMMMM
MMMMM?.MMMMM8N8?OZ=. ..  .  7MMMMMMMN.....................MMMMM8 ...  :7Z$MMMMMM
MMMMM. MODDNOMM...      . . =MMMMMMMM.. ..           ....?MMMMM87= =, .. +MMMMMM
MMMMMIIMMMMMMMM ..      . ,I.MMMMMMMM,O:. ..         ...~DMMMMN,. +O$~  .+MMMMMM
MMMMM  DMMMMMMM. .. .. .,?.??NMMMMMMM:  .8+:  . .. .. . OMMMMM$ ..,~..+8+=MMMMMM
MMMMM  8MMMMMMM, .  .,,::?O:.NMMMMMMM: .  . I$=+=.  .. .MMMMMM,... ...   7MMMMMM
MMMMM  ZMMMMMMM, .~ +?I~.:   NMMMMMMM:       .. =?,:II~?MMMMMN ... ....  +MMMMMM
MMMMM~ ?MMMMMMM7$+I  ... ..  NMMMMMMM.   .    ... . 7, DMMMMMZ+:,.    .  +MMMMMM
MMMMM,.+MMMMMMM?Z~. . .. . . NMMMMMMN.        .   .. .,MMMMMM~$..,+8Z????$MMMMMM
MMMMM . MMMMMMMO ..         .MMMMMMMO                 7MMMMM8.....:,.    +MMMMMM
MMMMM   ZMMMMMMM...        .,MMMMMMM=             .   NMMMMM= .... .. .. +MMMMMM
MMMMM ..,MMMMMMM~         . +MMMMMMM..            .. ~MMMMMM. ..         +MMMMMM
MMMMM. . 8MMMMMM8           8MMMMMM? .            .. ZMMMMMZ .           +MMMMMM
MMMMMO$.,+MMMMMMM=.... .. .:MMMMMMN...            .. MMMMMM~..           +MMMMMM
MMMMM8+$?.~DMMMMMM,... . . NMMMMM$,. .            . +MMMMMN              +MMMMMM
MMMMN+?= :I7MMMMMMM? . . ,MMMMMMO  ...            . 8MMMMM7  .           +MMMMMM
MMMMM==....~8MMMMMMMMNDDMMMMMMM$ ..                ,MMMMMM,..            +MMMMMM
MMMMMMMMMMMMMMMMMMMMMMMMMMMMMMMMMMMMMMMMMMMMMMMMMMMMMMMMMMMMMMMMMMMMMMMMMMMMMMMM
MMMMMMMMMMMMMMMMMMMMMMMMMMMMMMMMMMMMMMMMMMMMMMMMMMMMMMMMMMMMMMMMMMMMMMMMMMMMMMMM
MMMMMMMMMMMMMMMMMMMMMMMMMMMMMMMMMMMMMMMMMMMMMMMMMMMMMMMMMMMMMMMMMMMMMMMMMMMMMMMM
MMMMMMMMMMMMMMMMMMMMMMMMMMMMMMMMMMMMMMMMMMMMMMMMMMMMMMMMMMMMMMMMMMMMMMMMMMMMMMMM



Format                           : MPEG-4
Format profile                   : Base Media / Version 2
Codec ID                         : mp42
File size                        : 1.56 GiB
Duration                         : 2h 16mn
Overall bit rate                 : 1 635 Kbps
Encoded date                     : UTC 2010-06-11 04:50:32
Tagged date                      : UTC 2010-06-11 08:06:37

Video
ID                               : 1
Format                           : MPEG-4 Visual
Format profile                   : Advanced Simple@L5
Format settings, BVOP            : Yes
Format settings, QPel            : No
Format settings, GMC             : No warppoints
Format settings, Matrix          : Default (H.263)
Codec ID                         : 20
Duration                         : 2h 16mn
Bit rate mode                    : Variable
Bit rate                         : 1 548 Kbps
Maximum bit rate                 : 4 487 Kbps
Width                            : 720 pixels
Height                           : 400 pixels
Display aspect ratio             : 16:9
Frame rate mode                  : Constant
Frame rate                       : 25.000 fps
Color space                      : YUV
Chroma subsampling               : 4:2:0
Bit depth                        : 8 bits
Scan type                        : Progressive
Bits/(Pixel*Frame)               : 0.215
Stream size                      : 1.47 GiB (95%)
Writing library                  : em4v 4.1.6.5
Language                         : English
Encoded date                     : UTC 2010-06-11 04:50:32
Tagged date                      : UTC 2010-06-11 08:06:37

Audio
ID                               : 2
Format                           : AAC
Format/Info                      : Advanced Audio Codec
Format version                   : Version 4
Format profile                   : LC
Format settings, SBR             : No
Codec ID                         : 40
Duration                         : 2h 16mn
Bit rate mode                    : Variable
Bit rate                         : 80.6 Kbps
Maximum bit rate                 : 106 Kbps
Channel(s)                       : 2 channels
Channel positions                : Front: L R
Sampling rate                    : 44.1 KHz
Stream size                      : 78.5 MiB (5%)
Language                         : English
Encoded date                     : UTC 2010-06-11 04:50:32
Tagged date                      : UTC 2010-06-11 08:06:37

-H67-